<svg xmlns="http://www.w3.org/2000/svg" width="1020" height="552" viewBox="0 0 1020 552">
<rect width="100%" height="100%" fill="#fbfaf6"/>
<rect x="36" y="28" width="72" height="4" rx="2" fill="#204b57"/>
<text x="36" y="54" font-size="24" font-family="Georgia, serif" fill="#1d1d1b">Funding and rate responses to the baseline TDC estimate</text>
<text x="36" y="82" font-size="12" font-family="Helvetica, Arial, sans-serif" fill="#555">Local projection | Committed headline design | 1946Q4 to 2026Q2 | 4 outcomes | 31-93 obs</text>
<text x="36" y="98" font-size="12" font-family="Helvetica, Arial, sans-serif" fill="#555">Impulse responses for Raw reserve balances, Repo spread, Fed funds, SOFR to Baseline TDC estimate. Points are</text>
<text x="36" y="114" font-size="12" font-family="Helvetica, Arial, sans-serif" fill="#555">local-projection estimates and whiskers show 95% confidence intervals over horizons 0, 1, 2, 4.</text>
<rect x="36" y="130" width="440" height="220" rx="10" fill="#fffef9" stroke="#d9d2c3"/>
<rect x="36" y="130" width="440" height="10" rx="10" fill="#ece6d8" stroke="none"/>
<text x="52" y="148" font-size="14" font-family="Helvetica, Arial, sans-serif" fill="#222">Raw reserve balances</text>
<line x1="88" y1="314" x2="460" y2="314" stroke="#888" stroke-width="1"/>
<line x1="88" y1="154" x2="88" y2="314" stroke="#888" stroke-width="1"/>
<line x1="88" y1="301.24" x2="460" y2="301.24" stroke="#c9c1b0" stroke-dasharray="4 4" stroke-width="1"/>
<text x="44" y="318.00" font-size="11" font-family="Helvetica, Arial, sans-serif" fill="#666">-0.126</text>
<text x="44" y="305.24" font-size="11" font-family="Helvetica, Arial, sans-serif" fill="#666">0.000</text>
<text x="44" y="158.00" font-size="11" font-family="Helvetica, Arial, sans-serif" fill="#666">1.458</text>
<line x1="88.00" y1="290.76" x2="88.00" y2="275.83" stroke="#5c6f7b" stroke-width="2"/>
<circle cx="88.00" cy="283.29" r="4" fill="#204b57"/>
<text x="88.00" y="332.00" text-anchor="middle" font-size="11" font-family="Helvetica, Arial, sans-serif" fill="#666">0</text>
<line x1="181.00" y1="300.67" x2="181.00" y2="208.21" stroke="#5c6f7b" stroke-width="2"/>
<circle cx="181.00" cy="254.44" r="4" fill="#204b57"/>
<text x="181.00" y="332.00" text-anchor="middle" font-size="11" font-family="Helvetica, Arial, sans-serif" fill="#666">1</text>
<line x1="274.00" y1="297.94" x2="274.00" y2="179.74" stroke="#5c6f7b" stroke-width="2"/>
<circle cx="274.00" cy="238.84" r="4" fill="#204b57"/>
<text x="274.00" y="332.00" text-anchor="middle" font-size="11" font-family="Helvetica, Arial, sans-serif" fill="#666">2</text>
<line x1="460.00" y1="296.30" x2="460.00" y2="167.33" stroke="#5c6f7b" stroke-width="2"/>
<circle cx="460.00" cy="231.82" r="4" fill="#204b57"/>
<text x="460.00" y="332.00" text-anchor="middle" font-size="11" font-family="Helvetica, Arial, sans-serif" fill="#666">4</text>
<polyline points="88.00,283.29 181.00,254.44 274.00,238.84 460.00,231.82" fill="none" stroke="#204b57" stroke-width="2.5"/>
<text x="274.00" y="346.00" text-anchor="middle" font-size="11" font-family="Helvetica, Arial, sans-serif" fill="#666">Quarters after TDC change</text>
<rect x="516" y="130" width="440" height="220" rx="10" fill="#fffef9" stroke="#d9d2c3"/>
<rect x="516" y="130" width="440" height="10" rx="10" fill="#ece6d8" stroke="none"/>
<text x="532" y="148" font-size="14" font-family="Helvetica, Arial, sans-serif" fill="#222">Repo spread</text>
<line x1="568" y1="314" x2="940" y2="314" stroke="#888" stroke-width="1"/>
<line x1="568" y1="154" x2="568" y2="314" stroke="#888" stroke-width="1"/>
<line x1="568" y1="202.61" x2="940" y2="202.61" stroke="#c9c1b0" stroke-dasharray="4 4" stroke-width="1"/>
<text x="524" y="318.00" font-size="11" font-family="Helvetica, Arial, sans-serif" fill="#666">-1.80e-05</text>
<text x="524" y="206.61" font-size="11" font-family="Helvetica, Arial, sans-serif" fill="#666">0.000</text>
<text x="524" y="158.00" font-size="11" font-family="Helvetica, Arial, sans-serif" fill="#666">7.83e-06</text>
<line x1="568.00" y1="260.16" x2="568.00" y2="188.07" stroke="#5c6f7b" stroke-width="2"/>
<circle cx="568.00" cy="224.12" r="4" fill="#7f8d93"/>
<text x="568.00" y="332.00" text-anchor="middle" font-size="11" font-family="Helvetica, Arial, sans-serif" fill="#666">0</text>
<line x1="661.00" y1="300.67" x2="661.00" y2="216.95" stroke="#5c6f7b" stroke-width="2"/>
<circle cx="661.00" cy="258.81" r="4" fill="#204b57"/>
<text x="661.00" y="332.00" text-anchor="middle" font-size="11" font-family="Helvetica, Arial, sans-serif" fill="#666">1</text>
<line x1="754.00" y1="255.82" x2="754.00" y2="198.75" stroke="#5c6f7b" stroke-width="2"/>
<circle cx="754.00" cy="227.28" r="4" fill="#204b57"/>
<text x="754.00" y="332.00" text-anchor="middle" font-size="11" font-family="Helvetica, Arial, sans-serif" fill="#666">2</text>
<line x1="940.00" y1="222.65" x2="940.00" y2="167.33" stroke="#5c6f7b" stroke-width="2"/>
<circle cx="940.00" cy="194.99" r="4" fill="#7f8d93"/>
<text x="940.00" y="332.00" text-anchor="middle" font-size="11" font-family="Helvetica, Arial, sans-serif" fill="#666">4</text>
<polyline points="568.00,224.12 661.00,258.81 754.00,227.28 940.00,194.99" fill="none" stroke="#204b57" stroke-width="2.5"/>
<text x="754.00" y="346.00" text-anchor="middle" font-size="11" font-family="Helvetica, Arial, sans-serif" fill="#666">Quarters after TDC change</text>
<text x="36" y="390.00" font-size="12" font-family="Helvetica, Arial, sans-serif" fill="#444">Notes</text>
<text x="36" y="422.00" font-size="11" font-family="Helvetica, Arial, sans-serif" fill="#555">Treatment: Baseline TDC estimate</text>
<text x="36" y="436.00" font-size="11" font-family="Helvetica, Arial, sans-serif" fill="#555">Response: Direct response at horizon h</text>
<text x="36" y="450.00" font-size="11" font-family="Helvetica, Arial, sans-serif" fill="#555">Controls: Real GDP, GDP deflator, Effective federal funds rate, Total reserves</text>
<text x="36" y="464.00" font-size="11" font-family="Helvetica, Arial, sans-serif" fill="#555">Covariance: Newey-West HAC</text>
<text x="36" y="478.00" font-size="11" font-family="Helvetica, Arial, sans-serif" fill="#555">Sample span: 1946Q4 to 2026Q2</text>
<text x="36" y="492.00" font-size="11" font-family="Helvetica, Arial, sans-serif" fill="#555">Observations: 31 to 93</text>
<text x="36" y="506.00" font-size="11" font-family="Helvetica, Arial, sans-serif" fill="#555">Displayed branch: K=200 screened controls</text>
<text x="36" y="520.00" font-size="11" font-family="Helvetica, Arial, sans-serif" fill="#555">Artifact source: Funding and rate responses to the baseline TDC estimate</text>
</svg>